<?xml version="1.0" encoding="UTF-8" standalone="no"?> <!-- Created with Vectornator for iOS (http://vectornator.io/) --><!DOCTYPE svg PUBLIC "-//W3C//DTD SVG 1.1//EN" "http://www.w3.org/Graphics/SVG/1.1/DTD/svg11.dtd">
<svg style="fill-rule:evenodd;clip-rule:evenodd;stroke-linecap:round;stroke-linejoin:round;" xmlns:vectornator="http://vectornator.io" xmlns:xlink="http://www.w3.org/1999/xlink" xmlns="http://www.w3.org/2000/svg" xml:space="preserve" version="1.1" viewBox="0 0 512 512">
<metadata>
<vectornator:setting key="DisplayWhiteBackground" value="0"/>
<vectornator:setting key="RulersVisible" value="1"/>
<vectornator:setting key="GridSpacing" value="200"/>
<vectornator:setting key="Units" value="Pixels"/>
<vectornator:setting key="DynamicGuides" value="0"/>
<vectornator:setting key="SnapToPoints" value="0"/>
<vectornator:setting key="CMYKEnabledKey" value="0"/>
<vectornator:setting key="SnapToGrid" value="0"/>
<vectornator:setting key="SnapToGuides" value="1"/>
<vectornator:setting key="SnapToEdges" value="0"/>
</metadata>
<defs/>
<g id="Layer 1" vectornator:layerName="Layer 1">
<g opacity="1">
<path d="M200.011+395.014L50.2747+395.014L50.2747+135.021L200.011+135.021L200.011+180.191L105.403+180.191L105.403+237.275L193.431+237.275L193.431+282.445L105.403+282.445L105.403+349.488L200.011+349.488L200.011+395.014Z" opacity="1" fill="#000000"/>
<path d="M471.176+262.528C471.176+305.326+458.994+338.107+434.631+360.87C410.268+383.632+375.086+395.014+329.087+395.014L255.464+395.014L255.464+135.021L337.089+135.021C379.532+135.021+412.491+146.224+435.965+168.632C459.439+191.039+471.176+222.337+471.176+262.528ZM413.913+263.95C413.913+208.111+389.254+180.191+339.935+180.191L310.592+180.191L310.592+349.488L334.244+349.488C387.357+349.488+413.913+320.976+413.913+263.95Z" opacity="1" fill="#000000"/>
</g>
<g opacity="1">
<path d="M-101.433+252.246L-130.345+252.246L-130.345+139.959L-167.37+139.959L-167.37+115.897L-64.4086+115.897L-64.4086+139.959L-101.433+139.959L-101.433+252.246Z" opacity="1" fill="#ffffff"/>
<path d="M-113.091+426.365C-119.122+426.365-123.847+428.277-127.267+432.101C-130.687+435.925-132.645+441.349-133.142+448.375L-93.2264+448.375C-93.3508+441.349-95.1849+435.925-98.7289+432.101C-102.273+428.277-107.06+426.365-113.091+426.365ZM-109.081+514.218C-125.868+514.218-138.987+509.586-148.437+500.322C-157.888+491.058-162.613+477.939-162.613+460.965C-162.613+443.494-158.245+429.987-149.51+420.443C-140.774+410.899-128.697+406.127-113.278+406.127C-98.5424+406.127-87.0712+410.324-78.8641+418.718C-70.6571+427.111-66.5536+438.707-66.5536+453.504L-66.5536+467.307L-133.795+467.307C-133.484+475.39-131.091+481.701-126.614+486.239C-122.138+490.778-115.858+493.047-107.775+493.047C-101.496+493.047-95.558+492.395-89.9623+491.089C-84.3666+489.783-78.5222+487.7-72.4291+484.84L-72.4291+506.85C-77.403+509.337-82.719+511.187-88.3768+512.399C-94.0347+513.612-100.936+514.218-109.081+514.218Z" opacity="1" fill="#ffffff"/>
<path d="M-134.914+719.207L-168.489+668.193L-136.22+668.193L-115.982+701.394L-95.558+668.193L-63.2894+668.193L-97.2367+719.207L-61.704+772.46L-94.0658+772.46L-115.982+736.74L-137.992+772.46L-170.261+772.46L-134.914+719.207Z" opacity="1" fill="#ffffff"/>
<path d="M-112.345+1011.77C-107.371+1011.77-101.402+1010.68-94.4388+1008.5L-94.4388+1029.68C-101.527+1032.85-110.231+1034.43-120.552+1034.43C-131.93+1034.43-140.215+1031.56-145.406+1025.8C-150.598+1020.05-153.194+1011.43-153.194+999.925L-153.194+949.657L-166.81+949.657L-166.81+937.626L-151.142+928.113L-142.935+906.104L-124.749+906.104L-124.749+928.3L-95.558+928.3L-95.558+949.657L-124.749+949.657L-124.749+999.925C-124.749+1003.97-123.614+1006.95-121.345+1008.88C-119.075+1010.81-116.076+1011.77-112.345+1011.77Z" opacity="1" fill="#ffffff"/>
</g>
<path d="M278.47+191.46L278.47+191.46L278.47+191.918L278.47+191.918L278.47+191.46Z" opacity="1" fill="#ffffff"/>
</g>
</svg>
